<svg id="svg7727" xmlns="http://www.w3.org/2000/svg" viewBox="0 0 68.22 68.22"><defs><style>.cls-1{fill:#1581d1;opacity:0.7;}.cls-2,.cls-4,.cls-5{fill:none;stroke:#000;}.cls-2{stroke-width:1px;}.cls-3{fill:#fff;}.cls-4{stroke-width:1px;}</style></defs><title>drink</title><g id="layer1"><g id="g10157"><path id="rect20712" class="cls-1" d="M-10.11-10.11H58.11V58.11H-10.11Z" transform="translate(10.11 10.11)"/><g id="g9757"><path id="path7488-9" class="cls-2" d="M34.07,30.5l2.89,8" transform="translate(10.11 10.11)"/><path id="path7490-5" class="cls-2" d="M34.3,39.47l5.33-1.92" transform="translate(10.11 10.11)"/><path id="path10129" d="M32.53,13.69l-8,2.89,4.27,11.83a4.47,4.47,0,0,0,5.55,2.73h.07l.13-.06a4.27,4.27,0,0,0,2.24-5.6Zm-.85,1.82,1.69,4.67L28,22.11l-1.69-4.67Z" transform="translate(10.11 10.11)"/><path id="path7492-4" class="cls-3" d="M33.84,21.52,35.47,26v0A2.83,2.83,0,0,1,34,29.76a3,3,0,0,1-3.88-1.83L28.5,23.44Z" transform="translate(10.11 10.11)"/><path id="ellipse7494-8" d="M31.9,24.49a.71.71,0,1,1-.91-.43h0a.71.71,0,0,1,.91.43h0Z" transform="translate(10.11 10.11)"/><path id="ellipse7496-5" d="M34.2,26.67a.71.71,0,0,1-.43.91h0a.71.71,0,0,1-.91-.43h0a.71.71,0,0,1,1.34-.48Z" transform="translate(10.11 10.11)"/><path id="path7504-7" class="cls-2" d="M13.93,29.08l-2.89,8" transform="translate(10.11 10.11)"/><path id="path7506-9" class="cls-2" d="M13.7,38,8.38,36.13" transform="translate(10.11 10.11)"/><path id="path10137" d="M15.47,12.27,11.22,24.06a4.27,4.27,0,0,0,2.24,5.6l.13.06h.07l-.17,0,.24,0h-.07A4.47,4.47,0,0,0,19.22,27l4.27-11.83Zm.85,1.82L21.67,16,20,20.69l-5.34-1.93Z" transform="translate(10.11 10.11)"/><path id="path7508-9" class="cls-3" d="M14.16,20.1,19.5,22,17.88,26.5A3,3,0,0,1,14,28.34a2.83,2.83,0,0,1-1.48-3.72v0Z" transform="translate(10.11 10.11)"/><path id="ellipse7510-8" d="M16.1,23.06a.71.71,0,1,0,.91-.43h0a.71.71,0,0,0-.91.43h0Z" transform="translate(10.11 10.11)"/><path id="ellipse7512-8" d="M13.8,25.25a.71.71,0,0,0,.43.91h0a.71.71,0,0,0,.91-.43h0a.71.71,0,0,0-1.34-.48Z" transform="translate(10.11 10.11)"/><path id="path7522-4" class="cls-4" d="M24.71,10.33V7.86" transform="translate(10.11 10.11)"/><path id="path7524-1" class="cls-5" d="M21.51,11,19.74,9.28" transform="translate(10.11 10.11)"/><path id="path7526-3" class="cls-5" d="M27.92,11l1.76-1.76" transform="translate(10.11 10.11)"/></g></g></g></svg>