<svg id="svg7727" xmlns="http://www.w3.org/2000/svg" viewBox="0 0 68.22 68.22"><defs><style>.cls-1{fill:#1581d1;opacity:0.7;}.cls-2{fill:#fff;}</style></defs><title>lunch</title><g id="layer1"><g id="g10157"><path id="rect20712" class="cls-1" d="M-10.11-10.11H58.11V58.11H-10.11Z" transform="translate(10.11 10.11)"/></g></g><path d="M16.34,29.7A4.55,4.55,0,0,1,15.25,27a13.27,13.27,0,0,1,.08-3.09,4.93,4.93,0,0,1,1.43-2.54l.22-.2-.46-.48Q13.83,18,11.14,15.31a1.34,1.34,0,0,1-.34-.58.89.89,0,0,1,.46-1,1,1,0,0,1,1.16.19l2.87,2.87L16.48,18l.29-.25L15,15.9l-2.24-2.23a1,1,0,0,1-.08-1.41,1,1,0,0,1,1.46,0l3.8,3.8.25.24.25-.26-.22-.23L14.35,12a1,1,0,0,1-.32-1,.85.85,0,0,1,.63-.68,1,1,0,0,1,1,.26l2.15,2.16,4.71,4.77a.35.35,0,0,0,.37.11,7.26,7.26,0,0,1,5.39.86c.21.12.29,0,.4-.11l8-8a1.35,1.35,0,0,0,.17-.27l.14.06c.12.53.29,1,.37,1.58a8.58,8.58,0,0,1-.9,5.59,11.75,11.75,0,0,1-1.39,1.93c-.74.86-1.56,1.67-2.35,2.51l.14.2a4.88,4.88,0,0,1,.94,3.52,1.36,1.36,0,0,0,0,.34A5,5,0,0,1,33,29.27l.21.22c1.45,1.45,2.91,2.9,4.35,4.35a2.27,2.27,0,0,1,.58,2.36,2.16,2.16,0,0,1-1.72,1.59,2.3,2.3,0,0,1-2.22-.65L29.6,32.54a1.55,1.55,0,0,1-.19-.29,7.56,7.56,0,0,1-9.34.36l-.22.21c-1.4,1.4-2.79,2.8-4.19,4.19a2.36,2.36,0,0,1-3.87-.71,2.4,2.4,0,0,1,.56-2.67l3.72-3.72A2.85,2.85,0,0,1,16.34,29.7Zm7.73,2.12a7.06,7.06,0,0,0,5.64-2.4,1.12,1.12,0,0,1,.46-.31,4.35,4.35,0,0,0,0-8.25,1.48,1.48,0,0,1-.57-.39,6.76,6.76,0,0,0-10.28.06,1.12,1.12,0,0,1-.46.31,4.33,4.33,0,0,0,0,8.26,1.19,1.19,0,0,1,.48.32A6.63,6.63,0,0,0,24.06,31.82ZM36.59,11.56,29.08,19c.71.51,1.17,1.38,2.18,1.49,0-.32,0-.64,0-1s.1-.41.35-.4.34.17.34.41c0,.42,0,.84,0,1.26a.4.4,0,0,0,.25.43l.8-.74a1.64,1.64,0,0,1-.12-.4c0-.73,0-1.46,0-2.18,0-.24.17-.42.36-.39a.35.35,0,0,1,.32.4c0,.53,0,1.05,0,1.58q0,.16,0,.32a8.76,8.76,0,0,0,1-.94.16.16,0,0,0,0-.1c0-.59-.06-1.18-.08-1.77,0-.22,0-.44,0-.66s.08-.42.34-.44.34.16.34.43,0,.46,0,.69,0,.66,0,1C36.42,17,37.21,13.24,36.59,11.56Zm-6.7,20.18a1,1,0,0,0,.07.15c1.61,1.61,3.22,3.23,4.84,4.83a1.52,1.52,0,0,0,1.49.38,1.57,1.57,0,0,0,1.2-1.16A1.62,1.62,0,0,0,37,34.27L32.79,30l-.15-.12a11.64,11.64,0,0,1-.95.79c-.34.23-.73.38-1.08.59S30.13,31.58,29.89,31.74ZM18.11,17.29l-.17-.15L13.78,13c-.07-.07-.14-.18-.23-.21a.51.51,0,0,0-.38,0c-.15.09-.14.26,0,.39l.1.1,3.19,3.19,1.26,1.23-1.27,1.27a1.55,1.55,0,0,0-.17-.23L12,14.43c-.14-.14-.29-.25-.47-.08s-.09.33.06.47l.1.1,5.56,5.58.24.23c.32-.15.63-.28.92-.44a2.3,2.3,0,0,0,.58-.39,7.86,7.86,0,0,1,2.54-1.8l.38-.18-.23-.25-6-6-.53-.53c-.13-.13-.28-.19-.43,0s-.1.31,0,.45l.12.12,4.21,4.21.18.2ZM16.75,30.23l-.15.13c-1.27,1.27-2.54,2.52-3.8,3.8a1.63,1.63,0,0,0,.7,2.77,1.72,1.72,0,0,0,1.76-.52l4.06-4.06.17-.2-.86-.86c-.28.58-.52.74-.85.59-.13-.06-.31-.18-.33-.29a3.92,3.92,0,0,1,.05-.8Zm-.59-2.29,0,0c0,.08,0,.16.08.23a4.4,4.4,0,0,0,2.68,2.48,1.17,1.17,0,0,1,.48.32,6.74,6.74,0,0,0,9.79.53,5.25,5.25,0,0,1,1.58-1.12A3.91,3.91,0,0,0,32.88,28a1,1,0,0,0-.19.19,5.22,5.22,0,0,1-2.15,1.54,1.26,1.26,0,0,0-.46.32A7.46,7.46,0,0,1,18.91,30a1,1,0,0,0-.37-.25,5.1,5.1,0,0,1-2.07-1.41Z" transform="translate(10.11 10.11)"/><path class="cls-2" d="M16.16,27.93l.31.37a5.1,5.1,0,0,0,2.07,1.41,1,1,0,0,1,.37.25A7.46,7.46,0,0,0,30.08,30a1.26,1.26,0,0,1,.46-.32,5.22,5.22,0,0,0,2.15-1.54,1,1,0,0,1,.19-.19,3.91,3.91,0,0,1-2.15,2.44,5.25,5.25,0,0,0-1.58,1.12A6.74,6.74,0,0,1,19.36,31a1.17,1.17,0,0,0-.48-.32,4.4,4.4,0,0,1-2.68-2.48c0-.07-.05-.16-.08-.23Z" transform="translate(10.11 10.11)"/><path d="M24.49,28.41A3.44,3.44,0,1,1,28,25,3.43,3.43,0,0,1,24.49,28.41Zm0-6.14A2.72,2.72,0,0,0,21.78,25a2.75,2.75,0,0,0,2.74,2.69,2.72,2.72,0,1,0,0-5.44Z" transform="translate(10.11 10.11)"/><path d="M33.47,33.6a.57.57,0,0,1,.59-.57.56.56,0,0,1,.55.58.59.59,0,0,1-.59.57A.56.56,0,0,1,33.47,33.6Z" transform="translate(10.11 10.11)"/><path d="M31.34,31.5a.53.53,0,0,1,.57-.58.55.55,0,0,1,.56.56.59.59,0,0,1-.57.57A.55.55,0,0,1,31.34,31.5Z" transform="translate(10.11 10.11)"/><path d="M16.4,33.46a.62.62,0,0,1-.56.59.58.58,0,0,1-.59-.58.57.57,0,0,1,.56-.58A.58.58,0,0,1,16.4,33.46Z" transform="translate(10.11 10.11)"/><path class="cls-2" d="M24.53,22.27a2.72,2.72,0,1,1,0,5.44A2.75,2.75,0,0,1,21.78,25,2.72,2.72,0,0,1,24.53,22.27Z" transform="translate(10.11 10.11)"/></svg>